<?xml version="1.0" encoding="UTF-8" standalone="no"?>
<!DOCTYPE svg PUBLIC "-//W3C//DTD SVG 1.1//EN" "http://www.w3.org/Graphics/SVG/1.1/DTD/svg11.dtd">
<svg version="1.1" xmlns="http://www.w3.org/2000/svg" xmlns:xlink="http://www.w3.org/1999/xlink" preserveAspectRatio="xMidYMid meet" viewBox="0 0 500 500" width="500" height="500"><defs><path d="M500 250C500 387.98 387.98 500 250 500C112.02 500 0 387.98 0 250C0 112.02 112.02 0 250 0C387.98 0 500 112.02 500 250Z" id="a39CpmIRvq"></path><path d="M449.34 266.39L448.52 274.46L447.38 282.42L445.93 290.29L444.18 298.04L442.14 305.67L439.8 313.19L437.17 320.57L434.27 327.82L431.1 334.92L427.66 341.88L423.97 348.68L420.02 355.32L415.82 361.79L411.39 368.09L406.72 374.2L401.83 380.13L396.72 385.86L391.39 391.39L385.86 396.72L380.13 401.83L374.2 406.72L368.09 411.39L361.79 415.82L355.32 420.02L348.68 423.97L341.88 427.66L334.92 431.1L327.82 434.27L320.57 437.17L313.19 439.8L305.67 442.14L298.04 444.18L290.29 445.93L282.42 447.38L274.46 448.52L266.39 449.34L258.24 449.83L250 450L241.76 449.83L233.61 449.34L225.54 448.52L217.58 447.38L209.71 445.93L201.96 444.18L194.33 442.14L186.81 439.8L179.43 437.17L172.18 434.27L165.08 431.1L158.12 427.66L151.32 423.97L150.01 423.19L187.51 358.25L188.33 358.73L192.58 361.04L196.93 363.19L201.37 365.17L205.9 366.99L210.51 368.63L215.21 370.09L219.98 371.37L224.82 372.46L229.74 373.37L234.72 374.08L239.76 374.59L244.85 374.9L250 375L255.15 374.9L260.25 374.59L265.29 374.08L270.27 373.37L275.18 372.46L280.03 371.37L284.8 370.09L289.49 368.63L294.11 366.99L298.64 365.17L303.08 363.19L307.43 361.04L311.68 358.73L315.83 356.26L319.87 353.64L323.81 350.87L327.63 347.96L331.33 344.9L334.92 341.7L338.37 338.37L341.7 334.92L344.9 331.33L347.96 327.63L350.87 323.81L353.64 319.87L356.26 315.83L358.73 311.68L361.04 307.43L363.19 303.08L365.17 298.64L366.99 294.11L368.63 289.49L370.09 284.8L371.37 280.03L372.46 275.18L373.37 270.27L374.08 265.29L374.59 260.25L374.9 255.15L375 250L375 250L450 250L449.83 258.24L449.34 266.39ZM50.66 233.61L51.48 225.54L52.62 217.58L54.07 209.71L55.82 201.96L57.86 194.33L60.2 186.81L62.83 179.43L65.73 172.18L68.9 165.08L72.34 158.12L76.03 151.32L79.98 144.68L84.18 138.21L88.61 131.91L93.28 125.8L98.17 119.87L103.28 114.14L108.61 108.61L114.14 103.28L119.87 98.17L125.8 93.28L131.91 88.61L138.21 84.18L144.68 79.98L151.32 76.03L158.12 72.34L165.08 68.9L172.18 65.73L179.43 62.83L186.81 60.2L194.33 57.86L201.96 55.82L209.71 54.07L217.58 52.62L225.54 51.48L233.61 50.66L241.76 50.17L250 50L258.24 50.17L266.39 50.66L274.46 51.48L282.42 52.62L290.29 54.07L298.04 55.82L305.67 57.86L313.19 60.2L320.57 62.83L327.82 65.73L334.92 68.9L341.88 72.34L348.68 76.03L349.99 76.81L312.49 141.76L311.68 141.27L307.43 138.96L303.08 136.81L298.64 134.83L294.11 133.02L289.49 131.38L284.8 129.92L280.03 128.64L275.18 127.54L270.27 126.64L265.29 125.93L260.25 125.42L255.15 125.11L250 125L244.85 125.11L239.76 125.42L234.72 125.93L229.74 126.64L224.82 127.54L219.98 128.64L215.21 129.92L210.51 131.38L205.9 133.02L201.37 134.83L196.93 136.81L192.58 138.96L188.33 141.27L184.18 143.74L180.13 146.36L176.2 149.13L172.38 152.05L168.67 155.11L165.09 158.3L161.63 161.63L158.3 165.09L155.11 168.67L152.05 172.38L149.13 176.2L146.36 180.13L143.74 184.18L141.27 188.33L138.96 192.58L136.81 196.93L134.83 201.37L133.02 205.9L131.38 210.51L129.92 215.21L128.64 219.98L127.54 224.82L126.64 229.74L125.93 234.72L125.42 239.76L125.11 244.85L125 250L50 250L50.17 241.76L50.66 233.61Z" id="aNNgqqFgT"></path><path d="M62.83 320.57L60.2 313.19L57.86 305.67L55.82 298.04L54.07 290.29L52.62 282.42L51.48 274.46L50.66 266.39L50.58 265L125 265L64.71 325.28L62.83 320.57Z" id="a5upKVjkt"></path><path d="M442.14 194.32L444.19 201.96L445.94 209.71L447.38 217.57L448.52 225.54L449.34 233.6L449.43 235L375 235L435.29 174.71L437.18 179.43L439.8 186.81L439.8 186.81L442.14 194.32Z" id="h447htgSYx"></path></defs><g><g><g><use xlink:href="#a39CpmIRvq" opacity="1" fill="#2762d7" fill-opacity="1"></use></g><g><use xlink:href="#aNNgqqFgT" opacity="1" fill="#b4b2b2" fill-opacity="1"></use></g><g><use xlink:href="#a5upKVjkt" opacity="1" fill="#3e3e3e" fill-opacity="1"></use></g><g><use xlink:href="#h447htgSYx" opacity="1" fill="#3e3e3e" fill-opacity="1"></use></g></g></g></svg>